<?xml version="1.0" standalone="no"?><!DOCTYPE svg PUBLIC "-//W3C//DTD SVG 1.1//EN" "http://www.w3.org/Graphics/SVG/1.1/DTD/svg11.dtd"><svg t="1743181259530" class="icon" viewBox="0 0 1024 1024" version="1.1" xmlns="http://www.w3.org/2000/svg" p-id="7653" xmlns:xlink="http://www.w3.org/1999/xlink" width="200" height="200"><path d="M819.2 81.92H409.6a122.88 122.88 0 0 0-122.88 122.88v40.96H245.76a122.88 122.88 0 0 0-122.88 122.88v409.6a122.88 122.88 0 0 0 122.88 122.88h409.6a122.88 122.88 0 0 0 122.88-122.88v-40.96h40.96a122.88 122.88 0 0 0 122.88-122.88V204.8a122.88 122.88 0 0 0-122.88-122.88z m-122.88 696.32a40.96 40.96 0 0 1-40.96 40.96H245.76a40.96 40.96 0 0 1-40.96-40.96v-286.72h491.52v286.72z m0-368.64H204.8V368.64a40.96 40.96 0 0 1 40.96-40.96h409.6a40.96 40.96 0 0 1 40.96 40.96v40.96z m163.84 204.8a40.96 40.96 0 0 1-40.96 40.96h-40.96V368.64a122.88 122.88 0 0 0-7.3728-40.96H860.16v286.72z m0-368.64H368.64V204.8a40.96 40.96 0 0 1 40.96-40.96h409.6a40.96 40.96 0 0 1 40.96 40.96v40.96z" fill="#42526E" p-id="7654"></path></svg>