<?xml version="1.0" standalone="no"?><!DOCTYPE svg PUBLIC "-//W3C//DTD SVG 1.1//EN" "http://www.w3.org/Graphics/SVG/1.1/DTD/svg11.dtd"><svg t="1744648478484" class="icon" viewBox="0 0 1024 1024" version="1.1" xmlns="http://www.w3.org/2000/svg" p-id="6561" xmlns:xlink="http://www.w3.org/1999/xlink" width="200" height="200"><path d="M102.4 273.92V110.08l140.8-79.36L384 110.08v163.84l-140.8 79.36zM471.04 273.92V110.08l140.8-79.36 140.8 79.36v163.84l-140.8 79.36zM286.72 593.92v-163.84l140.8-79.36 140.8 79.36v163.84l-140.8 81.92z" fill="#4CB697" p-id="6562"></path><path d="M243.2 384l166.4-97.28V94.72L243.2 0 76.8 97.28v192L243.2 384z m0-325.12L358.4 125.44v133.12l-115.2 66.56L128 258.56V125.44l115.2-66.56zM611.84 384l166.4-97.28V94.72L611.84 0l-166.4 97.28v192l166.4 94.72z m0-325.12l115.2 66.56v133.12l-115.2 66.56-115.2-66.56V125.44l115.2-66.56zM243.2 640L76.8 737.28v192L243.2 1024l166.4-97.28v-192L243.2 640z m0 325.12L128 898.56v-133.12l115.2-66.56 115.2 66.56v133.12l-115.2 66.56zM611.84 640l-166.4 97.28v192l166.4 94.72 166.4-97.28v-192L611.84 640z m0 325.12l-115.2-66.56v-133.12l115.2-66.56 115.2 66.56v133.12l-115.2 66.56zM593.92 417.28l-166.4-94.72-166.4 97.28v192l166.4 94.72 166.4-97.28v-192z m-166.4 227.84l-115.2-66.56v-133.12l115.2-66.56 115.2 66.56v133.12l-115.2 66.56zM960 417.28L793.6 320l-166.4 97.28v192l166.4 94.72 166.4-97.28v-189.44zM793.6 645.12l-115.2-66.56v-133.12l115.2-66.56 115.2 66.56v133.12L793.6 645.12z" fill="#3C4255" p-id="6563"></path></svg>