<?xml version="1.0" standalone="no"?><!DOCTYPE svg PUBLIC "-//W3C//DTD SVG 1.1//EN" "http://www.w3.org/Graphics/SVG/1.1/DTD/svg11.dtd"><svg t="1744651867987" class="icon" viewBox="0 0 1024 1024" version="1.1" xmlns="http://www.w3.org/2000/svg" p-id="5154" xmlns:xlink="http://www.w3.org/1999/xlink" width="200" height="200"><path d="M256 128c0-70.6 57.4-128 128-128h320v256c0 35.4 28.6 64 64 64h256v576c0 70.6-57.4 128-128 128H384c-70.6 0-128-57.4-128-128V672h348.2l-78 78c-18.8 18.8-18.8 49.2 0 67.8s49.2 18.8 67.8 0l160-160c18.8-18.8 18.8-49.2 0-67.8l-160-160c-18.8-18.8-49.2-18.8-67.8 0s-18.8 49.2 0 67.8l78 78H256V128z m0 448v96H48c-26.6 0-48-21.4-48-48s21.4-48 48-48h208z m768-320H768V0l256 256z" p-id="5155"></path></svg>