<?xml version="1.0" standalone="no"?><!DOCTYPE svg PUBLIC "-//W3C//DTD SVG 1.1//EN" "http://www.w3.org/Graphics/SVG/1.1/DTD/svg11.dtd"><svg t="1746641335290" class="icon" viewBox="0 0 1024 1024" version="1.1" xmlns="http://www.w3.org/2000/svg" p-id="8135" xmlns:xlink="http://www.w3.org/1999/xlink" width="200" height="200"><path d="M278.341818 469.178182h255.069091q9.309091 0 15.36-6.050909t6.050909-14.894546-6.050909-15.36-15.36-6.516363H278.341818q-9.309091 0-15.36 6.516363t-6.050909 15.36 6.050909 14.894546T278.341818 469.178182zM853.643636 128.465455H683.287273V85.643636q0-17.687273-12.567273-30.254545T640.465455 42.821818h-85.643637q0-17.687273-12.567273-30.254545T512 0t-30.254545 12.567273T469.178182 42.821818h-84.712727q-17.687273 0-30.254546 12.567273T341.643636 85.643636v42.821819H171.287273q-17.687273 0-30.254546 12.567272T128.465455 171.287273v724.247272q0 17.687273 12.567272 30.254546T171.287273 938.356364h681.425454q17.687273 0 30.254546-12.567273T895.534545 895.534545V171.287273q0-17.687273-12.101818-30.254546T853.643636 128.465455zM384.465455 85.643636h256v85.643637H384.465455V85.643636z m469.178181 809.890909H171.287273V298.821818h682.356363v596.712727z m0-639.534545H171.287273v-84.712727h170.356363q0 17.687273 12.567273 30.254545T384.465455 214.109091h256q17.687273 0 30.254545-12.567273T683.287273 171.287273h170.356363v84.712727zM278.341818 725.178182h383.534546q8.378182 0 14.894545-6.050909t6.516364-14.894546-6.516364-15.36-14.894545-6.516363H278.341818q-9.309091 0-15.36 6.516363t-6.050909 15.36 6.050909 14.894546T278.341818 725.178182z m0-127.534546h468.247273q9.309091 0 15.36-6.516363t6.050909-15.36-6.050909-14.894546T746.589091 554.821818H278.341818q-9.309091 0-15.36 6.050909T256.930909 576.232727q0 8.378182 6.050909 14.894546t15.36 6.516363z" p-id="8136"></path></svg>