<?xml version="1.0" standalone="no"?><!DOCTYPE svg PUBLIC "-//W3C//DTD SVG 1.1//EN" "http://www.w3.org/Graphics/SVG/1.1/DTD/svg11.dtd"><svg t="1744651078187" class="icon" viewBox="0 0 1024 1024" version="1.1" xmlns="http://www.w3.org/2000/svg" p-id="13234" xmlns:xlink="http://www.w3.org/1999/xlink" width="200" height="200"><path d="M354.637 532.325C326.012 506.69 308 469.449 308 428c0-77.32 62.68-140 140-140s140 62.68 140 140c0 41.449-18.012 78.69-46.637 104.325C618.46 567.723 672 645.609 672 736h-56c0-92.784-75.216-168-168-168s-168 75.216-168 168h-56c0-90.39 53.54-168.277 130.637-203.675zM448 512c46.392 0 84-37.608 84-84s-37.608-84-84-84-84 37.608-84 84 37.608 84 84 84z m162.26 41.747a223.781 223.781 0 0 0-36.897-21.422 140.8 140.8 0 0 0 19.97-22.115C631.409 502.222 660 468.45 660 428c0-40.45-28.591-74.222-66.667-82.21-16.24-22.349-38.928-39.708-65.333-49.345 14.972-5.464 31.138-8.445 48-8.445 77.32 0 140 62.68 140 140 0 41.449-18.012 78.69-46.637 104.325C746.46 567.723 800 645.609 800 736h-56c0-69.254-41.904-128.721-101.741-154.429a225.229 225.229 0 0 0-32-27.824zM408 736h-56 56z m432 104V736h72v176H736v-72h104z m72-656v104h-72V184H736v-72h176v72zM112 840V736h72v104h104v72H112v-72z m72-656v104h-72V112h176v72H184z" fill="#5090F1" p-id="13235"></path></svg>